Sprint_05400001_forces_filt15Hz.mot
version=1
nRows=28
nColumns=19
inDegrees=yes
endheader
time	R_ground_force_vx	R_ground_force_vy	R_ground_force_vz	R_ground_force_px	R_ground_force_py	R_ground_force_pz	R_ground_torque_x	R_ground_torque_y	R_ground_torque_z	L_ground_force_vx	L_ground_force_vy	L_ground_force_vz	L_ground_force_px	L_ground_force_py	L_ground_force_pz	L_ground_torque_x	L_ground_torque_y	L_ground_torque_z	
0.000000	221.197619	2192.550567	-92.223598	  0.785302	  0.000000	 -0.264419	  0.000000	 61.697050	  0.000000	  0.000000	  0.000000	  0.000000	  0.604550	  0.000000	 -0.386311	  0.000000	  0.000000	  0.000000
0.000500	223.502709	2182.657295	-88.671473	  0.784471	  0.000000	 -0.264292	  0.000000	 59.168094	  0.000000	  0.000000	  0.000000	  0.000000	  0.605820	 -0.000000	 -0.386133	  0.000000	  0.000000	  0.000000
0.001000	225.858161	2172.416514	-85.109874	  0.783611	  0.000000	 -0.264164	  0.000000	 56.616087	  0.000000	  0.000000	  0.000000	  0.000000	  0.607089	 -0.000000	 -0.385955	  0.000000	  0.000000	  0.000000
0.001500	228.262463	2161.825856	-81.544619	  0.782721	  0.000000	 -0.264036	  0.000000	 54.044665	  0.000000	  0.000000	  0.000000	  0.000000	  0.608358	 -0.000000	 -0.385778	  0.000000	  0.000000	  0.000000
0.002000	230.713890	2150.883154	-77.981541	  0.781802	  0.000000	 -0.263907	  0.000000	 51.457648	  0.000000	  0.000000	  0.000000	  0.000000	  0.609627	 -0.000000	 -0.385600	  0.000000	  0.000000	  0.000000
0.002500	233.210488	2139.586403	-74.426434	  0.780853	  0.000000	 -0.263779	  0.000000	 48.859028	  0.000000	  0.000000	  0.000000	  0.000000	  0.610897	  0.000000	 -0.385422	  0.000000	  0.000000	  0.000000
0.003000	235.750070	2127.933742	-70.885001	  0.779873	  0.000000	 -0.263651	  0.000000	 46.252959	  0.000000	  0.000000	  0.000000	  0.000000	  0.612166	  0.000000	 -0.385245	  0.000000	  0.000000	  0.000000
0.003500	238.330231	2115.923429	-67.362811	  0.778862	  0.000000	 -0.263524	  0.000000	 43.643733	  0.000000	  0.000000	  0.000000	  0.000000	  0.613435	  0.000000	 -0.385067	  0.000000	  0.000000	  0.000000
0.004000	240.948369	2103.553845	-63.865262	  0.777819	  0.000000	 -0.263397	  0.000000	 41.035761	  0.000000	  0.000000	  0.000000	  0.000000	  0.614705	  0.000000	 -0.384889	  0.000000	  0.000000	  0.000000
0.004500	243.601716	2090.823501	-60.397556	  0.776744	  0.000000	 -0.263271	  0.000000	 38.433542	  0.000000	  0.000000	  0.000000	  0.000000	  0.615974	  0.000000	 -0.384711	  0.000000	  0.000000	  0.000000
0.005000	246.287358	2077.731061	-56.964678	  0.775636	  0.000000	 -0.263145	  0.000000	 35.841632	  0.000000	  0.000000	  0.000000	  0.000000	  0.617243	  0.000000	 -0.384534	  0.000000	  0.000000	  0.000000
0.005500	249.002248	2064.275367	-53.571402	  0.774495	  0.000000	 -0.263020	  0.000000	 33.264609	  0.000000	  0.000000	  0.000000	  0.000000	  0.618636	  0.000000	 -0.384387	  0.000000	  0.000000	  0.000000
0.006000	251.743217	2050.455459	-50.222295	  0.773319	  0.000000	 -0.262897	  0.000000	 30.707047	  0.000000	  0.000000	  0.000000	  0.000000	  0.620028	  0.000000	 -0.384240	  0.000000	  0.000000	  0.000000
0.006500	254.506974	2036.270586	-46.921744	  0.772108	  0.000000	 -0.262774	  0.000000	 28.173492	  0.000000	  0.000000	  0.000000	  0.000000	  0.621420	  0.000000	 -0.384094	  0.000000	  0.000000	  0.000000
0.007000	257.290116	2021.720217	-43.673991	  0.770861	  0.000000	 -0.262652	  0.000000	 25.668444	  0.000000	  0.000000	  0.000000	  0.000000	  0.622812	  0.000000	 -0.383947	  0.000000	  0.000000	  0.000000
0.007500	260.089140	2006.804043	-40.483171	  0.769576	  0.000000	 -0.262532	  0.000000	 23.196352	  0.000000	  0.000000	  0.000000	  0.000000	  0.624205	  0.000000	 -0.383800	  0.000000	  0.000000	  0.000000
0.008000	262.900460	1991.521980	-37.353360	  0.768254	  0.000000	 -0.262413	  0.000000	 20.761604	  0.000000	  0.000000	  0.000000	  0.000000	  0.625597	  0.000000	 -0.383653	  0.000000	  0.000000	  0.000000
0.008500	265.720433	1975.874186	-34.288621	  0.766893	  0.000000	 -0.262295	  0.000000	 18.368517	  0.000000	  0.000000	  0.000000	  0.000000	  0.626989	  0.000000	 -0.383507	  0.000000	  0.000000	  0.000000
0.009000	268.545386	1959.861072	-31.293041	  0.765491	  0.000000	 -0.262178	  0.000000	 16.021329	  0.000000	  0.000000	  0.000000	  0.000000	  0.628381	  0.000000	 -0.383360	  0.000000	  0.000000	  0.000000
0.009500	271.371642	1943.483316	-28.370756	  0.764047	  0.000000	 -0.262063	  0.000000	 13.724184	  0.000000	  0.000000	  0.000000	  0.000000	  0.629773	  0.000000	 -0.383213	  0.000000	  0.000000	  0.000000
0.010000	274.195541	1926.741885	-25.525952	  0.762560	  0.000000	 -0.261949	  0.000000	 11.481108	  0.000000	  0.000000	  0.000000	  0.000000	  0.631166	  0.000000	 -0.383066	  0.000000	  0.000000	  0.000000
0.010500	277.013451	1909.638037	-22.762857	  0.761029	  0.000000	 -0.261837	  0.000000	  9.295995	  0.000000	  0.000000	  0.000000	  0.000000	  0.632497	  0.000000	 -0.382936	  0.000000	  0.000000	  0.000000
0.011000	279.821772	1892.173338	-20.085707	  0.759450	  0.000000	 -0.261727	  0.000000	  7.172580	  0.000000	  0.000000	  0.000000	  0.000000	  0.633828	  0.000000	 -0.382805	  0.000000	  0.000000	  0.000000
0.011500	282.616942	1874.349654	-17.498706	  0.757824	  0.000000	 -0.261620	  0.000000	  5.114428	  0.000000	  0.000000	  0.000000	  0.000000	  0.635159	  0.000000	 -0.382675	  0.000000	  0.000000	  0.000000
0.012000	285.395428	1856.169144	-15.005986	  0.756146	  0.000000	 -0.261514	  0.000000	  3.124912	  0.000000	  0.000000	  0.000000	  0.000000	  0.636490	  0.000000	 -0.382544	  0.000000	  0.000000	  0.000000
0.012500	288.153740	1837.634238	-12.611572	  0.754417	  0.000000	 -0.261412	  0.000000	  1.207213	  0.000000	  0.000000	  0.000000	  0.000000	  0.637822	  0.000000	 -0.382413	  0.000000	  0.000000	  0.000000
0.013000	290.888439	1818.747621	-10.319354	  0.752632	  0.000000	 -0.261312	  0.000000	 -0.635683	  0.000000	  0.000000	  0.000000	  0.000000	  0.639153	  0.000000	 -0.382283	  0.000000	  0.000000	  0.000000
0.013500	293.596161	1799.512215	 -8.133070	  0.750790	  0.000000	 -0.261215	  0.000000	 -2.400974	  0.000000	  0.000000	  0.000000	  0.000000	  0.640484	  0.000000	 -0.382152	  0.000000	  0.000000	  0.000000
